#!OML:ASF X:\für Bonn\!DataBase\2005_08_10_Bjorn_Final\c3d\bjorn.ASF
:FULLY-SPECIFIED
:DEGREES
218
root -6.35208 17.6637 7.9833 -197.398 -238.138 -202.985
lowerback 3.77617 1.29201 10.0431
upperback 7.52067 1.82326 2.95946
thorax 6.02724 1.46776 -2.44741
lowerneck -6.19405 4.08751 6.02503
upperneck 5.14122 5.45157 -7.47588
head 3.23015 2.58562 -3.31897
rclavicle -4.4975e-014 8.54774e-015
rhumerus -28.6478 10.2409 -96.0138
rradius 71.6189
rwrist -4.97073
rhand -18.056 22.9317
rfingers 7.12502
rthumb 8.21627 -6.88859
lclavicle -4.4975e-014 8.54774e-015
lhumerus -51.3511 -21.2812 103.585
lradius 80.6451
lwrist -4.57969
lhand -40.016 -23.5551
lfingers 7.12502
lthumb -12.9832 6.02096
rfemur -5.10526 -5.65181 18.989
rtibia 41.0288
rfoot -29.7733 12.8303
rtoes -34.6691
lfemur -33.6178 6.3419 -18.0994
ltibia 80.4168
lfoot -19.6664 6.58927
ltoes -5.57052
219
root -6.09992 17.7398 8.13724 -197.232 -238.744 -203.138
lowerback 3.3149 1.59462 9.85141
upperback 7.34296 2.17356 2.90624
thorax 6.13135 1.62661 -2.37811
lowerneck -6.16384 3.88797 5.74636
upperneck 5.38108 5.20505 -7.23488
head 3.26571 2.46453 -3.19652
rclavicle 2.68359e-015 -3.42904e-014
rhumerus -28.3958 10.7889 -96.5582
rradius 72.4434
rwrist -5.27872
rhand -18.5066 22.4964
rfingers 7.12502
rthumb 7.78141 -7.34039
lclavicle 2.68359e-015 -3.42904e-014
lhumerus -52.2345 -21.1763 103.413
lradius 80.8011
lwrist -4.4747
lhand -39.9001 -23.8516
lfingers 7.12502
lthumb -12.8715 5.73152
rfemur -3.57871 -5.31489 19.0631
rtibia 39.4368
rfoot -28.7872 12.4523
rtoes -33.668
lfemur -35.0748 6.59672 -18.9929
ltibia 78.1756
lfoot -19.6497 6.2953
ltoes -6.27474
220
root -5.83556 17.8236 8.28917 -197.238 -239.337 -203.427
lowerback 2.85532 1.88884 9.79521
upperback 7.16198 2.51568 2.81788
thorax 6.2403 1.79005 -2.41589
lowerneck -6.07709 3.68867 5.48334
upperneck 5.65538 4.95551 -6.92386
head 3.30134 2.34539 -3.05386
rclavicle 9.19379e-015 5.66536e-015
rhumerus -28.2468 11.264 -97.1682
rradius 73.1926
rwrist -5.57479
rhand -18.8751 22.2768
rfingers 7.12502
rthumb 7.42567 -7.57287
lclavicle 9.19379e-015 5.66536e-015
lhumerus -53.0564 -21.0851 103.097
lradius 80.9362
lwrist -4.7457
lhand -39.702 -23.6878
lfingers 7.12502
lthumb -12.6805 5.90728
rfemur -1.90348 -5.16239 19.1659
rtibia 37.6795
rfoot -27.5 11.9445
rtoes -33.4032
lfemur -36.2716 6.78281 -19.7927
ltibia 75.6184
lfoot -19.6022 5.83013
ltoes -6.7347
221
root -5.56248 17.913 8.43962 -197.265 -239.957 -203.542
lowerback 2.51597 2.17579 9.67812
upperback 7.03251 2.86548 2.66289
thorax 6.33715 1.95773 -2.48932
lowerneck -5.95299 3.4772 5.35697
upperneck 5.90299 4.67909 -6.64616
head 3.32704 2.21586 -2.9508
rclavicle -8.59744e-014 -5.35725e-014
rhumerus -28.1213 11.6533 -97.8329
rradius 73.8092
rwrist -5.99959
rhand -19.0545 22.1976
rfingers 7.12502
rthumb 7.25257 -7.65812
lclavicle -8.59744e-014 -5.35725e-014
lhumerus -53.7542 -21.104 102.714
lradius 80.9584
lwrist -4.98854
lhand -39.5906 -23.7528
lfingers 7.12502
lthumb -12.5731 5.84884
rfemur 0.0514783 -5.1714 19.0986
rtibia 35.7185
rfoot -25.8636 11.4187
rtoes -33.5449
lfemur -37.0292 6.88148 -20.6447
ltibia 72.7229
lfoot -19.5549 4.99942
ltoes -6.51304
222
root -5.28107 18.0113 8.58648 -197.216 -240.597 -203.545
lowerback 2.20318 2.46398 9.49219
upperback 6.89838 3.22295 2.49583
thorax 6.4108 2.12451 -2.53575
lowerneck -5.86639 3.26114 5.27506
upperneck 6.20444 4.39624 -6.40897
head 3.38277 2.08237 -2.87081
rclavicle -1.00883e-014 -8.54774e-015
rhumerus -28.0168 12 -98.4533
rradius 74.2277
rwrist -6.55954
rhand -19.0133 22.2905
rfingers 7.12502
rthumb 7.29234 -7.5638
lclavicle -1.00883e-014 -8.54774e-015
lhumerus -54.4063 -21.2221 102.363
lradius 80.9374
lwrist -5.15845
lhand -39.6431 -23.9468
lfingers 7.12502
lthumb -12.6237 5.65178
rfemur 2.10325 -5.3972 18.8751
rtibia 33.5379
rfoot -23.7235 11.0364
rtoes -33.6813
lfemur -37.566 6.92334 -21.5492
ltibia 69.5785
lfoot -19.4226 3.94516
ltoes -6.44098
223
root -4.99134 18.1188 8.72977 -197.265 -241.208 -203.696
lowerback 1.79316 2.74003 9.37686
upperback 6.78551 3.55138 2.34995
thorax 6.56498 2.28351 -2.58993
lowerneck -5.67866 3.04582 5.21719
upperneck 6.36877 4.1111 -6.19304
head 3.37402 1.95001 -2.80238
rclavicle 1.56543e-014 9.93923e-016
rhumerus -27.9788 12.4077 -99.04
rradius 74.6271
rwrist -7.17693
rhand -18.9175 22.5102
rfingers 7.12502
rthumb 7.38474 -7.34096
lclavicle 1.56543e-014 9.93923e-016
lhumerus -55.0023 -21.3277 102.008
lradius 80.8899
lwrist -5.45265
lhand -39.8269 -24.0786
lfingers 7.12502
lthumb -12.8009 5.50894
rfemur 4.16182 -5.81001 18.6434
rtibia 31.1737
rfoot -21.1199 10.8057
rtoes -33.6146
lfemur -37.9667 6.97171 -22.3754
ltibia 66.278
lfoot -19.1387 2.90956
ltoes -7.19055
